<?xml version="1.0" encoding="utf-8"?>
<!-- Generator: Adobe Illustrator 28.0.0, SVG Export Plug-In . SVG Version: 6.00 Build 0)  -->
<svg version="1.1" xmlns="http://www.w3.org/2000/svg" xmlns:xlink="http://www.w3.org/1999/xlink" x="0px" y="0px"
	 viewBox="0 0 736 123" enable-background="new 0 0 736 123" xml:space="preserve">
<g id="Ebene_1">
	<g>
		<path fill="#FFFFFF" d="M194.6,53L209,1h14.3l14.1,52H226l-2.9-11.5h-14.8l-3,11.5H194.6z M215.5,11h-0.1l-5,22.5h10.4L215.5,11z"
			/>
		<path fill="#FFFFFF" d="M252.2,20.3h0.1c1-1.7,2.2-2.7,3.6-3.4c1.4-0.7,3.1-1,5-1c4.8,0,9.1,2.9,9.1,7.9V53h-10.2V27.9
			c0-3.2-0.6-5.8-3.8-5.8s-3.8,2.5-3.8,5.8V53H242V16.6h10.2V20.3z"/>
		<path fill="#FFFFFF" d="M277.8,53V1H288v31h0.1l9.1-15.3h10.6l-10.3,16.2L309,53h-11.4l-9.4-19.8H288V53H277.8z"/>
		<path fill="#FFFFFF" d="M331.8,49.3h-0.1c-1,1.6-2.2,2.7-3.6,3.4c-1.4,0.7-3,1-5,1c-4.8,0-9.1-2.9-9.1-7.9V16.6h10.2v25.2
			c0,3.2,0.6,5.6,3.8,5.6s3.8-2.4,3.8-5.6V16.6H342v29.2c0,2.4,0.1,4.8,0.4,7.2h-10.5V49.3z"/>
		<path fill="#FFFFFF" d="M360.2,20.3h0.1c1-1.7,2.2-2.7,3.6-3.4c1.4-0.7,3.1-1,5-1c4.8,0,9.1,2.9,9.1,7.9V53h-10.2V27.9
			c0-3.2-0.6-5.8-3.8-5.8s-3.8,2.5-3.8,5.8V53H350V16.6h10.2V20.3z"/>
		<path fill="#FFFFFF" d="M401.6,7.3c-4.1-0.3-5,1.3-5,5v4.4h4.8v6.3h-4.8V53h-10.2V22.9H382v-6.3h4.6c-0.1-10.4-0.9-16,11.4-16
			c1.2,0,2.4,0.1,3.6,0.1V7.3z"/>
		<path fill="#FFFFFF" d="M401.9,16.6h4.1v-5.8l10.2-4.5v10.3h5.3v6.3h-5.3v19.4c0,2.7-0.1,4.5,3.2,4.5c0.6,0,1.3,0,1.8-0.1V53
			c-1.4,0.1-2.8,0.4-5.3,0.4c-8.8,0-9.9-5.8-9.9-8.1V22.9h-4.1V16.6z"/>
		<path fill="#FFFFFF" d="M454.6,53L469,1h14.3l14.1,52H486l-2.9-11.5h-14.8l-3,11.5H454.6z M475.5,11h-0.1l-5,22.5h10.4L475.5,11z"
			/>
		<path fill="#FFFFFF" d="M511.7,16.6v4.7h0.1c1.9-4.2,5.3-5.4,9.4-5.4V25c-8.9-0.6-9.1,4.6-9.1,8.2V53H502V16.6H511.7z"/>
		<path fill="#FFFFFF" d="M535.6,16.6v4.7h0.1c1.9-4.2,5.3-5.4,9.4-5.4V25c-8.9-0.6-9.1,4.6-9.1,8.2V53H526V16.6H535.6z"/>
		<path fill="#FFFFFF" d="M561,1v8h-10.2V1H561z M561,53h-10.2V16.6H561V53z"/>
		<path fill="#FFFFFF" d="M566.5,16.6h10.3l5.1,27.3h0.1l5.3-27.3h9.9l-10,36.4h-11.2L566.5,16.6z"/>
		<path fill="#FFFFFF" d="M629.5,46.2c0,2.2,0.3,4.5,0.5,6.8h-9.4l-0.4-4.8H620c-2.2,3.7-5.1,5.5-9.5,5.5c-7.1,0-9.6-5.3-9.6-11.6
			c0-12,9.3-12.5,18.7-12.4v-2.8c0-3.1-0.4-5.3-4.1-5.3c-3.5,0-3.8,2.7-3.8,5.5h-9.9c0-4.4,1.4-7.2,3.7-8.9c2.3-1.7,5.6-2.4,9.5-2.4
			c12.9,0,14.5,5.5,14.5,12.2V46.2z M610.8,41.7c0,2.6,0.4,5.8,3.7,5.8c6,0,5-8.1,5-12C614.5,35.6,610.8,35.2,610.8,41.7z"/>
		<path fill="#FFFFFF" d="M649,1v52h-10.2V1H649z"/>
		<path fill="#FFFFFF" d="M666,41.3c-0.1,1.7,0,3.2,0.5,4.4c0.6,1.2,1.7,1.7,3.7,1.7s3.7-1.3,3.7-3.7c0-7.7-17.9-6-17.9-17.6
			c0-7.8,7.8-10.2,14.3-10.2c6.9,0,13.2,3.3,12.6,11.2H673c0-2.5-0.3-4-1-4.7c-0.6-0.6-1.5-0.8-2.6-0.8c-2.2,0-3.5,1.4-3.5,3.9
			c0,5.8,17.9,5.5,17.9,17.1c0,6.3-5.2,11.1-13.6,11.1c-8.9,0-14.8-2.2-14.2-12.4H666z"/>
	</g>
	<rect x="0.8" y="0.8" fill="none" stroke="#FFFFFF" stroke-width="2" stroke-miterlimit="10" width="121.3" height="121.3"/>
</g>
<g id="Isolationsmodus">
	<path fill="#FFFFFF" d="M94.2,53.4c3.3,1.1,6.3,2.9,8.8,5.4l7,7c3.3,3.3,2.3,8.9-1.9,10.8c-8.2,3.7-15.2,2-23.7-0.8L34.5,59.1
		c-0.8-0.3-1.6-0.7-2.2-1.3l-19-14.6c-1.1-1.1-1.7-2.7-1.6-4.3l1.5-19.3c0.1-1.8,1.9-3,3.6-2.4l5.9,2c1.6,0.5,2.8,1.7,3.4,3.2
		l3.9,10l18.1,6.1L41.8,9.1c-0.5-2.1,1.5-3.9,3.6-3.2l8.4,2.8c2.8,0.9,5.3,3.1,6.6,5.9l14.8,32.6L94.2,53.4z"/>
	<circle fill="#FFFFFF" cx="88" cy="84" r="4.5"/>
	<circle fill="#FFFFFF" cx="32" cy="66" r="4.5"/>
	<circle fill="#FFFFFF" cx="43" cy="70" r="4.5"/>
	<g>
	</g>
	<g>
	</g>
	<g>
	</g>
	<g>
	</g>
	<g>
	</g>
	<g>
	</g>
	<g>
	</g>
	<g>
	</g>
	<g>
	</g>
	<g>
	</g>
	<g>
	</g>
	<g>
	</g>
	<g>
	</g>
	<g>
	</g>
	<g>
	</g>
</g>
</svg>
