<?xml version="1.0" encoding="utf-8"?>
<!-- Generator: Adobe Illustrator 28.0.0, SVG Export Plug-In . SVG Version: 6.00 Build 0)  -->
<svg version="1.1" xmlns="http://www.w3.org/2000/svg" xmlns:xlink="http://www.w3.org/1999/xlink" x="0px" y="0px"
	 viewBox="0 0 736 123" enable-background="new 0 0 736 123" xml:space="preserve">
<g id="Ebene_1">
	<g>
		<path fill="#FFFFFF" d="M194.6,53L209,1h14.3l14.1,52H226l-2.9-11.5h-14.8l-3,11.5H194.6z M215.5,11h-0.1l-5,22.5h10.4L215.5,11z"
			/>
		<path fill="#FFFFFF" d="M242,1h10.2v19.1h0.1c2.1-3.1,4.6-4.2,8.3-4.2c10.2,0,9.9,11.3,9.9,18.6c0,7.5,0.4,19.2-10.2,19.2
			c-3.9,0-6.7-1.2-8.6-4.8h-0.1v4H242V1z M260.6,34.5c0-7.3,0.1-12.3-4.3-12.3c-4.2,0-4.1,5-4.1,12.3c0,9.1,0.6,13,4.1,13
			C260,47.5,260.6,43.6,260.6,34.5z"/>
		<path fill="#FFFFFF" d="M293.6,7.3c-4.1-0.3-5,1.3-5,5v4.4h4.8v6.3h-4.8V53h-10.2V22.9H274v-6.3h4.6c-0.1-10.4-0.9-16,11.4-16
			c1.2,0,2.4,0.1,3.6,0.1V7.3z M306,1v52h-10.2V1H306z"/>
		<path fill="#FFFFFF" d="M331.8,49.3h-0.1c-1,1.6-2.2,2.7-3.6,3.4c-1.4,0.7-3,1-5,1c-4.8,0-9.1-2.9-9.1-7.9V16.6h10.2v25.2
			c0,3.2,0.6,5.6,3.8,5.6s3.8-2.4,3.8-5.6V16.6H342v29.2c0,2.4,0.1,4.8,0.4,7.2h-10.5V49.3z"/>
		<path fill="#FFFFFF" d="M377.8,16.6v37.9C377.8,57,378,67,364,67c-7.6,0-14-1.9-14.3-10.8h9.9c0,1.5,0.2,2.8,0.9,3.7
			c0.6,0.9,1.8,1.4,3.4,1.4c2.5,0,3.7-2.4,3.7-6v-7h-0.1c-1.5,2.8-4.4,4.2-7.7,4.2c-11.2,0-10.7-10.2-10.7-18.4
			c0-8,0.1-18.1,10.7-18.1c3.6,0,6.7,1.6,8.1,5h0.1v-4.2H377.8z M363.5,46.2c3.7,0,4.2-3.8,4.2-11.5c0-8-0.4-12.5-4.1-12.5
			c-3.8,0-4.5,2.7-4.5,13.8C359.1,39.3,358.6,46.2,363.5,46.2z"/>
		<path fill="#FFFFFF" d="M418.7,1h18.1c14.3,0,16.9,9.5,16.9,25.7c0,8,1.2,26.3-17.4,26.3h-17.7V1z M429.6,45h5.3
			c6.6,0,7.9-5,7.9-18c0-9.6,0-18-7.6-18h-5.6V45z"/>
		<path fill="#FFFFFF" d="M471.3,36.4c0,4.3,0.1,10.8,4.6,10.8c3.6,0,4.3-3.5,4.3-6.5h10.3c-0.1,4-1.4,7.2-3.9,9.4
			c-2.4,2.2-6,3.5-10.7,3.5c-13.1,0-14.8-8-14.8-19.4c0-9.9,1.4-18.4,14.8-18.4c13.7,0,15.2,8.9,14.8,20.5H471.3z M480.6,30.8
			c0-3.5,0.1-8.6-4.7-8.6c-4.7,0-4.6,5.5-4.6,8.6H480.6z"/>
		<path fill="#FFFFFF" d="M507.6,16.6v4h0.1c1.9-3.5,4.7-4.8,8.6-4.8c10.5,0,10.2,11.7,10.2,19.2c0,7.3,0.3,18.6-9.9,18.6
			c-3.7,0-6.2-1.1-8.3-4.2h-0.1v19.1H498v-52H507.6z M516.6,34.5c0-7.3,0.1-12.3-4.3-12.3c-4.2,0-4.1,5-4.1,12.3
			c0,9.1,0.6,13,4.1,13C515.9,47.5,516.6,43.6,516.6,34.5z"/>
		<path fill="#FFFFFF" d="M561.6,46.2c0,2.2,0.3,4.5,0.5,6.8h-9.4l-0.4-4.8h-0.1c-2.2,3.7-5.1,5.5-9.5,5.5c-7.1,0-9.6-5.3-9.6-11.6
			c0-12,9.3-12.5,18.7-12.4v-2.8c0-3.1-0.4-5.3-4.1-5.3c-3.5,0-3.8,2.7-3.8,5.5h-9.9c0-4.4,1.4-7.2,3.7-8.9c2.3-1.7,5.6-2.4,9.5-2.4
			c12.9,0,14.5,5.5,14.5,12.2V46.2z M542.8,41.7c0,2.6,0.4,5.8,3.7,5.8c6,0,5-8.1,5-12C546.6,35.6,542.8,35.2,542.8,41.7z"/>
		<path fill="#FFFFFF" d="M579.6,16.6v4.7h0.1c1.9-4.2,5.3-5.4,9.4-5.4V25c-8.9-0.6-9.1,4.6-9.1,8.2V53H570V16.6H579.6z"/>
		<path fill="#FFFFFF" d="M589.9,16.6h4.1v-5.8l10.2-4.5v10.3h5.3v6.3h-5.3v19.4c0,2.7-0.1,4.5,3.2,4.5c0.6,0,1.3,0,1.8-0.1V53
			c-1.4,0.1-2.8,0.4-5.3,0.4c-8.8,0-9.9-5.8-9.9-8.1V22.9h-4.1V16.6z"/>
		<path fill="#FFFFFF" d="M631.8,49.3h-0.1c-1,1.6-2.2,2.7-3.6,3.4c-1.4,0.7-3,1-5,1c-4.8,0-9.1-2.9-9.1-7.9V16.6h10.2v25.2
			c0,3.2,0.6,5.6,3.8,5.6s3.8-2.4,3.8-5.6V16.6h10.2v29.2c0,2.4,0.1,4.8,0.4,7.2h-10.5V49.3z"/>
		<path fill="#FFFFFF" d="M659.6,16.6v4.7h0.1c1.9-4.2,5.3-5.4,9.4-5.4V25c-8.9-0.6-9.1,4.6-9.1,8.2V53H650V16.6H659.6z"/>
		<path fill="#FFFFFF" d="M683.3,36.4c0,4.3,0.1,10.8,4.6,10.8c3.6,0,4.3-3.5,4.3-6.5h10.3c-0.1,4-1.4,7.2-3.9,9.4
			c-2.4,2.2-6,3.5-10.7,3.5c-13.1,0-14.8-8-14.8-19.4c0-9.9,1.4-18.4,14.8-18.4c13.7,0,15.2,8.9,14.8,20.5H683.3z M692.6,30.8
			c0-3.5,0.1-8.6-4.7-8.6c-4.7,0-4.6,5.5-4.6,8.6H692.6z"/>
		<path fill="#FFFFFF" d="M717.9,41.3c-0.1,1.7,0,3.2,0.5,4.4c0.6,1.2,1.7,1.7,3.7,1.7c2,0,3.7-1.3,3.7-3.7c0-7.7-17.9-6-17.9-17.6
			c0-7.8,7.8-10.2,14.3-10.2c6.9,0,13.2,3.3,12.6,11.2H725c0-2.5-0.3-4-1-4.7c-0.6-0.6-1.5-0.8-2.6-0.8c-2.2,0-3.5,1.4-3.5,3.9
			c0,5.8,17.9,5.5,17.9,17.1c0,6.3-5.2,11.1-13.6,11.1c-8.9,0-14.8-2.2-14.2-12.4H717.9z"/>
	</g>
	<rect x="0.8" y="0.8" fill="none" stroke="#FFFFFF" stroke-width="2" stroke-miterlimit="10" width="121.3" height="121.3"/>
</g>
<g id="Isolationsmodus">
	<path fill="#FFFFFF" d="M89.1,61.2c3.1-1.6,6.5-2.4,10-2.4h9.9c4.7,0,7.9,4.6,6.2,9c-3.1,8.4-9.4,12.2-17.4,16.2l-47,23.5
		c-0.8,0.4-1.6,0.6-2.5,0.6l-23.7,3.1c-1.6,0-3.1-0.7-4.2-1.9L7.9,94.5c-1.2-1.4-0.7-3.5,0.9-4.3l5.5-2.8c1.5-0.7,3.2-0.8,4.7-0.1
		l9.9,4.3L46,83.2L20.7,66.9c-1.8-1.2-1.7-3.8,0.3-4.8l7.9-4c2.6-1.4,5.9-1.5,8.8-0.5l33.6,12.6L89.1,61.2z"/>
</g>
</svg>
